<svg width="72" height="72" viewBox="0 0 72 72" fill="none" xmlns="http://www.w3.org/2000/svg">
<rect width="72" height="72" rx="36" fill="#2B4BA8"/>
<path d="M66.432 32.8896L60.48 27.36L55.2 16.8C54.7466 16.0627 54.111 15.4545 53.3543 15.0342C52.5977 14.6138 51.7455 14.3954 50.88 14.4H21.12C20.2544 14.3954 19.4023 14.6138 18.6456 15.0342C17.889 15.4545 17.2534 16.0627 16.8 16.8L11.52 27.36L5.56799 32.8896C5.32552 33.1145 5.13213 33.387 4.99997 33.6902C4.86781 33.9933 4.79973 34.3205 4.79999 34.6512V55.2C4.79999 55.8365 5.05284 56.447 5.50293 56.897C5.95302 57.3471 6.56347 57.6 7.19999 57.6H16.8C17.76 57.6 19.2 56.64 19.2 55.68V52.8H52.8V55.2C52.8 56.16 53.76 57.6 54.72 57.6H64.8C65.4365 57.6 66.047 57.3471 66.497 56.897C66.9471 56.447 67.2 55.8365 67.2 55.2V34.6512C67.2002 34.3205 67.1322 33.9933 67 33.6902C66.8678 33.387 66.6745 33.1145 66.432 32.8896ZM21.6 19.2H50.4L55.2 28.8H16.8L21.6 19.2ZM24 41.28C24 42.24 22.56 43.2 21.6 43.2H11.52C10.56 43.2 9.59999 41.76 9.59999 40.8V35.52C10.08 34.08 11.04 33.12 12.48 33.6L22.08 35.52C23.04 35.52 24 36.96 24 37.92V41.28ZM62.4 40.8C62.4 41.76 61.44 43.2 60.48 43.2H50.4C49.44 43.2 48 42.24 48 41.28V37.92C48 36.96 48.96 35.52 49.92 35.52L59.52 33.6C60.96 33.12 61.92 34.08 62.4 35.52V40.8Z" fill="white"/>
</svg>
